<svg xmlns="http://www.w3.org/2000/svg" viewBox="0 0 64 64" fill="none">
  <path fill="#f7b928" stroke="#9a6400" stroke-width="2.5" d="M16 19c0-6.1 4.9-11 11-11h10c6.1 0 11 4.9 11 11v4H16v-4Z"/>
  <circle cx="25" cy="9" r="5" fill="#f7b928" stroke="#9a6400" stroke-width="2.5"/>
  <circle cx="39" cy="9" r="5" fill="#f7b928" stroke="#9a6400" stroke-width="2.5"/>
  <path fill="#20a673" stroke="#075f47" stroke-width="3" d="M9 29c0-7.2 5.8-13 13-13h20c7.2 0 13 5.8 13 13v15c0 8.8-7.2 16-16 16H25C16.2 60 9 52.8 9 44V29Z"/>
  <path stroke="#f7b928" stroke-linecap="round" stroke-width="4" d="M13 24h38"/>
  <circle cx="24" cy="37" r="3" fill="#10231d"/>
  <circle cx="40" cy="37" r="3" fill="#10231d"/>
  <path stroke="#10231d" stroke-linecap="round" stroke-width="3" d="M24 46c2.2 2.4 4.9 3.5 8 3.5s5.8-1.1 8-3.5"/>
</svg>
